<?xml version="1.0" encoding="iso-8859-1"?>
<!-- Generator: Adobe Illustrator 19.0.0, SVG Export Plug-In . SVG Version: 6.00 Build 0)  -->
<svg version="1.1" id="Layer_1" xmlns="http://www.w3.org/2000/svg" xmlns:xlink="http://www.w3.org/1999/xlink" x="0px" y="0px"
	 viewBox="0 0 512.001 512.001" style="enable-background:new 0 0 512.001 512.001;" xml:space="preserve">
<path style="fill:#C03A2B;" d="M256.153,450.021c-28.095-0.062-55.061,11.092-74.915,30.972
	c-41.446,41.384-108.587,41.34-149.972-0.106s-41.34-108.587,0.106-149.972c14.604-14.577,33.134-24.583,53.332-28.784
	c48.673-11.109,83.571-53.861,84.71-103.769c0.768-15.38-1.941-30.734-7.942-44.914c-0.706-1.765-1.5-3.441-2.382-5.206
	l-0.529-1.059c-5.471-13.077-8.286-27.116-8.294-41.296C150.266,47.411,197.677,0,256.153,0S362.04,47.411,362.04,105.887
	c-0.009,14.18-2.824,28.219-8.294,41.296l-0.529,1.059c-0.882,1.765-1.677,3.441-2.382,5.206c-6,14.18-8.709,29.534-7.942,44.914
	c1.138,49.908,36.037,92.66,84.71,103.769c57.267,12.062,93.913,68.271,81.842,125.538c-12.062,57.267-68.271,93.913-125.538,81.842
	c-19.995-4.209-38.349-14.118-52.838-28.519C311.214,461.112,284.257,449.959,256.153,450.021z"/>
<circle style="fill:#802D40;" cx="256.162" cy="105.887" r="70.591"/>
<g>
	<circle style="fill:#2C2F38;" cx="256.162" cy="105.887" r="35.296"/>
	<circle style="fill:#2C2F38;" cx="256.162" cy="300.014" r="70.591"/>
</g>
<path style="fill:#5E5F62;" d="M220.857,308.838c-4.871,0-8.824-3.953-8.824-8.824c0.026-24.354,19.766-44.093,44.12-44.12
	c4.871,0,8.824,3.953,8.824,8.824c0,4.871-3.953,8.824-8.824,8.824c-14.612,0.018-26.454,11.859-26.472,26.472
	C229.681,304.885,225.737,308.838,220.857,308.838z"/>
<circle style="fill:#802D40;" cx="106.155" cy="405.901" r="70.591"/>
<circle style="fill:#2C2F38;" cx="106.155" cy="405.901" r="35.296"/>
<circle style="fill:#802D40;" cx="406.169" cy="405.901" r="70.591"/>
<circle style="fill:#2C2F38;" cx="406.169" cy="405.901" r="35.296"/>
<g>
</g>
<g>
</g>
<g>
</g>
<g>
</g>
<g>
</g>
<g>
</g>
<g>
</g>
<g>
</g>
<g>
</g>
<g>
</g>
<g>
</g>
<g>
</g>
<g>
</g>
<g>
</g>
<g>
</g>
</svg>
